<?xml version="1.0" encoding="UTF-8" standalone="no"?>
<!DOCTYPE svg PUBLIC "-//W3C//DTD SVG 1.1//EN"
 "http://www.w3.org/Graphics/SVG/1.1/DTD/svg11.dtd">
<!-- Generated by graphviz version 2.43.0 (0)
 -->
<!-- Title: src/rrt.cpp Pages: 1 -->
<svg width="820pt" height="192pt"
 viewBox="0.00 0.00 819.62 192.00" xmlns="http://www.w3.org/2000/svg" xmlns:xlink="http://www.w3.org/1999/xlink">
<g id="graph0" class="graph" transform="scale(1 1) rotate(0) translate(4 188)">
<title>src/rrt.cpp</title>
<!-- Node1 -->
<g id="Node000001" class="node">
<title>Node1</title>
<g id="a_Node000001"><a xlink:title=" ">
<polygon fill="#999999" stroke="#666666" points="489.62,-184 424.62,-184 424.62,-165 489.62,-165 489.62,-184"/>
<text text-anchor="middle" x="457.12" y="-172" font-family="Helvetica,sans-Serif" font-size="10.00">src/rrt.cpp</text>
</a>
</g>
</g>
<!-- Node2 -->
<g id="Node000002" class="node">
<title>Node2</title>
<g id="a_Node000002"><a xlink:href="rrt_8hpp.html" target="_top" xlink:title=" ">
<polygon fill="white" stroke="#666666" points="500.62,-129 413.62,-129 413.62,-110 500.62,-110 500.62,-129"/>
<text text-anchor="middle" x="457.12" y="-117" font-family="Helvetica,sans-Serif" font-size="10.00">spanny/rrt.hpp</text>
</a>
</g>
</g>
<!-- Node1&#45;&gt;Node2 -->
<g id="edge1_Node000001_Node000002" class="edge">
<title>Node1&#45;&gt;Node2</title>
<g id="a_edge1_Node000001_Node000002"><a xlink:title=" ">
<path fill="none" stroke="#63b8ff" d="M457.12,-164.75C457.12,-157.8 457.12,-147.85 457.12,-139.13"/>
<polygon fill="#63b8ff" stroke="#63b8ff" points="460.62,-139.09 457.12,-129.09 453.62,-139.09 460.62,-139.09"/>
</a>
</g>
</g>
<!-- Node4 -->
<g id="Node000004" class="node">
<title>Node4</title>
<g id="a_Node000004"><a xlink:title=" ">
<polygon fill="#e0e0e0" stroke="#999999" points="206.12,-19 146.12,-19 146.12,0 206.12,0 206.12,-19"/>
<text text-anchor="middle" x="176.12" y="-7" font-family="Helvetica,sans-Serif" font-size="10.00">concepts</text>
</a>
</g>
</g>
<!-- Node1&#45;&gt;Node4 -->
<g id="edge16_Node000001_Node000004" class="edge">
<title>Node1&#45;&gt;Node4</title>
<g id="a_edge16_Node000001_Node000004"><a xlink:title=" ">
<path fill="none" stroke="#63b8ff" d="M424.59,-171.64C329.75,-165.45 57.06,-141.93 7.12,-74 -27.03,-27.55 75.16,-15.07 135.39,-11.72"/>
<polygon fill="#63b8ff" stroke="#63b8ff" points="135.92,-15.2 145.74,-11.21 135.58,-8.21 135.92,-15.2"/>
</a>
</g>
</g>
<!-- Node5 -->
<g id="Node000005" class="node">
<title>Node5</title>
<g id="a_Node000005"><a xlink:title=" ">
<polygon fill="#e0e0e0" stroke="#999999" points="80.12,-74 16.12,-74 16.12,-55 80.12,-55 80.12,-74"/>
<text text-anchor="middle" x="48.12" y="-62" font-family="Helvetica,sans-Serif" font-size="10.00">algorithm</text>
</a>
</g>
</g>
<!-- Node1&#45;&gt;Node5 -->
<g id="edge14_Node000001_Node000005" class="edge">
<title>Node1&#45;&gt;Node5</title>
<g id="a_edge14_Node000001_Node000005"><a xlink:title=" ">
<path fill="none" stroke="#63b8ff" d="M424.51,-167.64C383.01,-159.94 309.27,-145.46 247.12,-129 188.27,-113.42 121.02,-90.96 81.7,-77.35"/>
<polygon fill="#63b8ff" stroke="#63b8ff" points="82.69,-73.99 72.09,-74.01 80.39,-80.6 82.69,-73.99"/>
</a>
</g>
</g>
<!-- Node6 -->
<g id="Node000006" class="node">
<title>Node6</title>
<g id="a_Node000006"><a xlink:title=" ">
<polygon fill="#e0e0e0" stroke="#999999" points="145.62,-74 98.62,-74 98.62,-55 145.62,-55 145.62,-74"/>
<text text-anchor="middle" x="122.12" y="-62" font-family="Helvetica,sans-Serif" font-size="10.00">cmath</text>
</a>
</g>
</g>
<!-- Node1&#45;&gt;Node6 -->
<g id="edge15_Node000001_Node000006" class="edge">
<title>Node1&#45;&gt;Node6</title>
<g id="a_edge15_Node000001_Node000006"><a xlink:title=" ">
<path fill="none" stroke="#63b8ff" d="M426.84,-164.92C396.46,-156.22 348.39,-142.2 307.12,-129 253.76,-111.93 192.34,-90.49 155.41,-77.4"/>
<polygon fill="#63b8ff" stroke="#63b8ff" points="156.26,-73.99 145.67,-73.94 153.92,-80.59 156.26,-73.99"/>
</a>
</g>
</g>
<!-- Node7 -->
<g id="Node000007" class="node">
<title>Node7</title>
<g id="a_Node000007"><a xlink:title=" ">
<polygon fill="#e0e0e0" stroke="#999999" points="226.12,-74 164.12,-74 164.12,-55 226.12,-55 226.12,-74"/>
<text text-anchor="middle" x="195.12" y="-62" font-family="Helvetica,sans-Serif" font-size="10.00">expected</text>
</a>
</g>
</g>
<!-- Node1&#45;&gt;Node7 -->
<g id="edge17_Node000001_Node000007" class="edge">
<title>Node1&#45;&gt;Node7</title>
<g id="a_edge17_Node000001_Node000007"><a xlink:title=" ">
<path fill="none" stroke="#63b8ff" d="M436.12,-164.84C389.83,-145.76 278.84,-100.01 225.18,-77.89"/>
<polygon fill="#63b8ff" stroke="#63b8ff" points="226.43,-74.62 215.85,-74.05 223.77,-81.09 226.43,-74.62"/>
</a>
</g>
</g>
<!-- Node8 -->
<g id="Node000008" class="node">
<title>Node8</title>
<g id="a_Node000008"><a xlink:title=" ">
<polygon fill="#e0e0e0" stroke="#999999" points="300.12,-74 244.12,-74 244.12,-55 300.12,-55 300.12,-74"/>
<text text-anchor="middle" x="272.12" y="-62" font-family="Helvetica,sans-Serif" font-size="10.00">mdspan</text>
</a>
</g>
</g>
<!-- Node1&#45;&gt;Node8 -->
<g id="edge18_Node000001_Node000008" class="edge">
<title>Node1&#45;&gt;Node8</title>
<g id="a_edge18_Node000001_Node000008"><a xlink:title=" ">
<path fill="none" stroke="#63b8ff" d="M442.29,-164.84C410.28,-146.16 334.47,-101.9 295.75,-79.3"/>
<polygon fill="#63b8ff" stroke="#63b8ff" points="297.16,-76.07 286.76,-74.05 293.63,-82.11 297.16,-76.07"/>
</a>
</g>
</g>
<!-- Node9 -->
<g id="Node000009" class="node">
<title>Node9</title>
<g id="a_Node000009"><a xlink:title=" ">
<polygon fill="#e0e0e0" stroke="#999999" points="558.12,-74 502.12,-74 502.12,-55 558.12,-55 558.12,-74"/>
<text text-anchor="middle" x="530.12" y="-62" font-family="Helvetica,sans-Serif" font-size="10.00">optional</text>
</a>
</g>
</g>
<!-- Node1&#45;&gt;Node9 -->
<g id="edge19_Node000001_Node000009" class="edge">
<title>Node1&#45;&gt;Node9</title>
<g id="a_edge19_Node000001_Node000009"><a xlink:title=" ">
<path fill="none" stroke="#63b8ff" d="M470.91,-164.86C482.61,-156.87 499.05,-144 509.12,-129 518.22,-115.44 523.66,-97.62 526.71,-84.31"/>
<polygon fill="#63b8ff" stroke="#63b8ff" points="530.17,-84.88 528.75,-74.38 523.31,-83.47 530.17,-84.88"/>
</a>
</g>
</g>
<!-- Node11 -->
<g id="Node000011" class="node">
<title>Node11</title>
<g id="a_Node000011"><a xlink:title=" ">
<polygon fill="#e0e0e0" stroke="#999999" points="626.12,-74 576.12,-74 576.12,-55 626.12,-55 626.12,-74"/>
<text text-anchor="middle" x="601.12" y="-62" font-family="Helvetica,sans-Serif" font-size="10.00">ranges</text>
</a>
</g>
</g>
<!-- Node1&#45;&gt;Node11 -->
<g id="edge20_Node000001_Node000011" class="edge">
<title>Node1&#45;&gt;Node11</title>
<g id="a_edge20_Node000001_Node000011"><a xlink:title=" ">
<path fill="none" stroke="#63b8ff" d="M472.25,-164.95C486.94,-156.43 509.66,-142.69 528.12,-129 548.43,-113.95 570.08,-94.65 584.48,-81.3"/>
<polygon fill="#63b8ff" stroke="#63b8ff" points="587.16,-83.6 592.06,-74.21 582.37,-78.49 587.16,-83.6"/>
</a>
</g>
</g>
<!-- Node12 -->
<g id="Node000012" class="node">
<title>Node12</title>
<g id="a_Node000012"><a xlink:title=" ">
<polygon fill="#e0e0e0" stroke="#999999" points="684.12,-74 644.12,-74 644.12,-55 684.12,-55 684.12,-74"/>
<text text-anchor="middle" x="664.12" y="-62" font-family="Helvetica,sans-Serif" font-size="10.00">span</text>
</a>
</g>
</g>
<!-- Node1&#45;&gt;Node12 -->
<g id="edge21_Node000001_Node000012" class="edge">
<title>Node1&#45;&gt;Node12</title>
<g id="a_edge21_Node000001_Node000012"><a xlink:title=" ">
<path fill="none" stroke="#63b8ff" d="M477.07,-165C496.87,-156.41 527.95,-142.52 554.12,-129 584.98,-113.06 619.5,-92.7 641.5,-79.39"/>
<polygon fill="#63b8ff" stroke="#63b8ff" points="643.39,-82.34 650.12,-74.15 639.75,-76.36 643.39,-82.34"/>
</a>
</g>
</g>
<!-- Node13 -->
<g id="Node000013" class="node">
<title>Node13</title>
<g id="a_Node000013"><a xlink:title=" ">
<polygon fill="#e0e0e0" stroke="#999999" points="746.12,-74 702.12,-74 702.12,-55 746.12,-55 746.12,-74"/>
<text text-anchor="middle" x="724.12" y="-62" font-family="Helvetica,sans-Serif" font-size="10.00">string</text>
</a>
</g>
</g>
<!-- Node1&#45;&gt;Node13 -->
<g id="edge22_Node000001_Node000013" class="edge">
<title>Node1&#45;&gt;Node13</title>
<g id="a_edge22_Node000001_Node000013"><a xlink:title=" ">
<path fill="none" stroke="#63b8ff" d="M484.36,-164.85C510.46,-156.37 550.84,-142.75 585.12,-129 624.99,-113 670.03,-91.84 697.75,-78.45"/>
<polygon fill="#63b8ff" stroke="#63b8ff" points="699.33,-81.57 706.8,-74.05 696.27,-75.27 699.33,-81.57"/>
</a>
</g>
</g>
<!-- Node14 -->
<g id="Node000014" class="node">
<title>Node14</title>
<g id="a_Node000014"><a xlink:title=" ">
<polygon fill="#e0e0e0" stroke="#999999" points="811.62,-74 764.62,-74 764.62,-55 811.62,-55 811.62,-74"/>
<text text-anchor="middle" x="788.12" y="-62" font-family="Helvetica,sans-Serif" font-size="10.00">vector</text>
</a>
</g>
</g>
<!-- Node1&#45;&gt;Node14 -->
<g id="edge23_Node000001_Node000014" class="edge">
<title>Node1&#45;&gt;Node14</title>
<g id="a_edge23_Node000001_Node000014"><a xlink:title=" ">
<path fill="none" stroke="#63b8ff" d="M489.76,-165.65C523.06,-157.41 576.09,-143.63 621.12,-129 669.64,-113.23 724.76,-91.51 757.96,-78"/>
<polygon fill="#63b8ff" stroke="#63b8ff" points="759.6,-81.11 767.53,-74.08 756.95,-74.63 759.6,-81.11"/>
</a>
</g>
</g>
<!-- Node3 -->
<g id="Node000003" class="node">
<title>Node3</title>
<g id="a_Node000003"><a xlink:href="like_8hpp.html" target="_top" xlink:title=" ">
<polygon fill="white" stroke="#666666" points="411.62,-74 318.62,-74 318.62,-55 411.62,-55 411.62,-74"/>
<text text-anchor="middle" x="365.12" y="-62" font-family="Helvetica,sans-Serif" font-size="10.00">spanny/like.hpp</text>
</a>
</g>
</g>
<!-- Node2&#45;&gt;Node3 -->
<g id="edge2_Node000002_Node000003" class="edge">
<title>Node2&#45;&gt;Node3</title>
<g id="a_edge2_Node000002_Node000003"><a xlink:title=" ">
<path fill="none" stroke="#63b8ff" d="M442.34,-109.98C427.94,-101.69 405.81,-88.94 388.93,-79.22"/>
<polygon fill="#63b8ff" stroke="#63b8ff" points="390.58,-76.13 380.17,-74.17 387.09,-82.19 390.58,-76.13"/>
</a>
</g>
</g>
<!-- Node2&#45;&gt;Node5 -->
<g id="edge4_Node000002_Node000005" class="edge">
<title>Node2&#45;&gt;Node5</title>
<g id="a_edge4_Node000002_Node000005"><a xlink:title=" ">
<path fill="none" stroke="#63b8ff" d="M413.62,-114.44C346.4,-107.89 213.09,-93.88 90.26,-74.06"/>
<polygon fill="#63b8ff" stroke="#63b8ff" points="90.74,-70.59 80.3,-72.44 89.61,-77.5 90.74,-70.59"/>
</a>
</g>
</g>
<!-- Node2&#45;&gt;Node6 -->
<g id="edge5_Node000002_Node000006" class="edge">
<title>Node2&#45;&gt;Node6</title>
<g id="a_edge5_Node000002_Node000006"><a xlink:title=" ">
<path fill="none" stroke="#63b8ff" d="M413.61,-113.56C356.65,-106.76 253.56,-93.36 155.89,-73.95"/>
<polygon fill="#63b8ff" stroke="#63b8ff" points="156.34,-70.47 145.84,-71.93 154.96,-77.33 156.34,-70.47"/>
</a>
</g>
</g>
<!-- Node2&#45;&gt;Node7 -->
<g id="edge6_Node000002_Node000007" class="edge">
<title>Node2&#45;&gt;Node7</title>
<g id="a_edge6_Node000002_Node000007"><a xlink:title=" ">
<path fill="none" stroke="#63b8ff" d="M413.7,-109.95C371.03,-101.51 303.77,-88.13 236.11,-74.19"/>
<polygon fill="#63b8ff" stroke="#63b8ff" points="236.62,-70.72 226.12,-72.12 235.21,-77.57 236.62,-70.72"/>
</a>
</g>
</g>
<!-- Node2&#45;&gt;Node8 -->
<g id="edge7_Node000002_Node000008" class="edge">
<title>Node2&#45;&gt;Node8</title>
<g id="a_edge7_Node000002_Node000008"><a xlink:title=" ">
<path fill="none" stroke="#63b8ff" d="M427.4,-109.98C395.51,-100.85 344.78,-86.32 310.04,-76.36"/>
<polygon fill="#63b8ff" stroke="#63b8ff" points="310.83,-72.95 300.25,-73.56 308.9,-79.68 310.83,-72.95"/>
</a>
</g>
</g>
<!-- Node2&#45;&gt;Node9 -->
<g id="edge8_Node000002_Node000009" class="edge">
<title>Node2&#45;&gt;Node9</title>
<g id="a_edge8_Node000002_Node000009"><a xlink:title=" ">
<path fill="none" stroke="#63b8ff" d="M468.85,-109.98C479.85,-102 496.54,-89.88 509.72,-80.31"/>
<polygon fill="#63b8ff" stroke="#63b8ff" points="512.14,-82.88 518.18,-74.17 508.03,-77.21 512.14,-82.88"/>
</a>
</g>
</g>
<!-- Node10 -->
<g id="Node000010" class="node">
<title>Node10</title>
<g id="a_Node000010"><a xlink:title=" ">
<polygon fill="#e0e0e0" stroke="#999999" points="484.12,-74 430.12,-74 430.12,-55 484.12,-55 484.12,-74"/>
<text text-anchor="middle" x="457.12" y="-62" font-family="Helvetica,sans-Serif" font-size="10.00">random</text>
</a>
</g>
</g>
<!-- Node2&#45;&gt;Node10 -->
<g id="edge9_Node000002_Node000010" class="edge">
<title>Node2&#45;&gt;Node10</title>
<g id="a_edge9_Node000002_Node000010"><a xlink:title=" ">
<path fill="none" stroke="#63b8ff" d="M457.12,-109.75C457.12,-102.8 457.12,-92.85 457.12,-84.13"/>
<polygon fill="#63b8ff" stroke="#63b8ff" points="460.62,-84.09 457.12,-74.09 453.62,-84.09 460.62,-84.09"/>
</a>
</g>
</g>
<!-- Node2&#45;&gt;Node11 -->
<g id="edge10_Node000002_Node000011" class="edge">
<title>Node2&#45;&gt;Node11</title>
<g id="a_edge10_Node000002_Node000011"><a xlink:title=" ">
<path fill="none" stroke="#63b8ff" d="M480.26,-109.98C503.94,-101.27 540.99,-87.63 567.83,-77.75"/>
<polygon fill="#63b8ff" stroke="#63b8ff" points="569.39,-80.91 577.56,-74.17 566.97,-74.34 569.39,-80.91"/>
</a>
</g>
</g>
<!-- Node2&#45;&gt;Node12 -->
<g id="edge11_Node000002_Node000012" class="edge">
<title>Node2&#45;&gt;Node12</title>
<g id="a_edge11_Node000002_Node000012"><a xlink:title=" ">
<path fill="none" stroke="#63b8ff" d="M493.03,-109.97C527.02,-101.8 579.69,-88.88 634.06,-74.21"/>
<polygon fill="#63b8ff" stroke="#63b8ff" points="635.13,-77.54 643.87,-71.55 633.3,-70.79 635.13,-77.54"/>
</a>
</g>
</g>
<!-- Node2&#45;&gt;Node13 -->
<g id="edge12_Node000002_Node000013" class="edge">
<title>Node2&#45;&gt;Node13</title>
<g id="a_edge12_Node000002_Node000013"><a xlink:title=" ">
<path fill="none" stroke="#63b8ff" d="M500.84,-111.35C546.24,-103.68 619.54,-90.63 691.66,-74.19"/>
<polygon fill="#63b8ff" stroke="#63b8ff" points="692.87,-77.5 701.82,-71.85 691.29,-70.68 692.87,-77.5"/>
</a>
</g>
</g>
<!-- Node2&#45;&gt;Node14 -->
<g id="edge13_Node000002_Node000014" class="edge">
<title>Node2&#45;&gt;Node14</title>
<g id="a_edge13_Node000002_Node000014"><a xlink:title=" ">
<path fill="none" stroke="#63b8ff" d="M500.8,-113.42C557.16,-106.55 658.4,-93.13 754.51,-73.92"/>
<polygon fill="#63b8ff" stroke="#63b8ff" points="755.29,-77.34 764.4,-71.93 753.9,-70.48 755.29,-77.34"/>
</a>
</g>
</g>
<!-- Node3&#45;&gt;Node4 -->
<g id="edge3_Node000003_Node000004" class="edge">
<title>Node3&#45;&gt;Node4</title>
<g id="a_edge3_Node000003_Node000004"><a xlink:title=" ">
<path fill="none" stroke="#63b8ff" d="M334.75,-54.98C302.65,-45.98 251.86,-31.74 216.42,-21.8"/>
<polygon fill="#63b8ff" stroke="#63b8ff" points="216.99,-18.32 206.41,-18.99 215.1,-25.06 216.99,-18.32"/>
</a>
</g>
</g>
</g>
</svg>
