<?xml version="1.0" encoding="UTF-8" standalone="no"?>
<!DOCTYPE svg PUBLIC "-//W3C//DTD SVG 1.1//EN"
 "http://www.w3.org/Graphics/SVG/1.1/DTD/svg11.dtd">
<!-- Generated by graphviz version 2.43.0 (0)
 -->
<!-- Title: include/spanny/rrt.hpp Pages: 1 -->
<svg width="803pt" height="137pt"
 viewBox="0.00 0.00 803.00 137.00" xmlns="http://www.w3.org/2000/svg" xmlns:xlink="http://www.w3.org/1999/xlink">
<g id="graph0" class="graph" transform="scale(1 1) rotate(0) translate(4 133)">
<title>include/spanny/rrt.hpp</title>
<!-- Node1 -->
<g id="Node000001" class="node">
<title>Node1</title>
<g id="a_Node000001"><a xlink:title=" ">
<polygon fill="#999999" stroke="#666666" points="504,-129 379,-129 379,-110 504,-110 504,-129"/>
<text text-anchor="middle" x="441.5" y="-117" font-family="Helvetica,sans-Serif" font-size="10.00">include/spanny/rrt.hpp</text>
</a>
</g>
</g>
<!-- Node2 -->
<g id="Node000002" class="node">
<title>Node2</title>
<g id="a_Node000002"><a xlink:href="like_8hpp.html" target="_top" xlink:title=" ">
<polygon fill="white" stroke="#666666" points="93,-74 0,-74 0,-55 93,-55 93,-74"/>
<text text-anchor="middle" x="46.5" y="-62" font-family="Helvetica,sans-Serif" font-size="10.00">spanny/like.hpp</text>
</a>
</g>
</g>
<!-- Node1&#45;&gt;Node2 -->
<g id="edge1_Node000001_Node000002" class="edge">
<title>Node1&#45;&gt;Node2</title>
<g id="a_edge1_Node000001_Node000002"><a xlink:title=" ">
<path fill="none" stroke="#63b8ff" d="M378.97,-110.67C313.03,-102.34 205.85,-88.54 103.16,-74.07"/>
<polygon fill="#63b8ff" stroke="#63b8ff" points="103.63,-70.6 93.24,-72.67 102.65,-77.53 103.63,-70.6"/>
</a>
</g>
</g>
<!-- Node4 -->
<g id="Node000004" class="node">
<title>Node4</title>
<g id="a_Node000004"><a xlink:title=" ">
<polygon fill="#e0e0e0" stroke="#999999" points="175.5,-74 111.5,-74 111.5,-55 175.5,-55 175.5,-74"/>
<text text-anchor="middle" x="143.5" y="-62" font-family="Helvetica,sans-Serif" font-size="10.00">algorithm</text>
</a>
</g>
</g>
<!-- Node1&#45;&gt;Node4 -->
<g id="edge3_Node000001_Node000004" class="edge">
<title>Node1&#45;&gt;Node4</title>
<g id="a_edge3_Node000001_Node000004"><a xlink:title=" ">
<path fill="none" stroke="#63b8ff" d="M389.94,-109.97C338.19,-101.3 256.21,-87.3 185.5,-74 185.4,-73.98 185.3,-73.96 185.2,-73.94"/>
<polygon fill="#63b8ff" stroke="#63b8ff" points="186.07,-70.55 175.59,-72.09 184.74,-77.42 186.07,-70.55"/>
</a>
</g>
</g>
<!-- Node5 -->
<g id="Node000005" class="node">
<title>Node5</title>
<g id="a_Node000005"><a xlink:title=" ">
<polygon fill="#e0e0e0" stroke="#999999" points="241,-74 194,-74 194,-55 241,-55 241,-74"/>
<text text-anchor="middle" x="217.5" y="-62" font-family="Helvetica,sans-Serif" font-size="10.00">cmath</text>
</a>
</g>
</g>
<!-- Node1&#45;&gt;Node5 -->
<g id="edge4_Node000001_Node000005" class="edge">
<title>Node1&#45;&gt;Node5</title>
<g id="a_edge4_Node000001_Node000005"><a xlink:title=" ">
<path fill="none" stroke="#63b8ff" d="M403.75,-109.98C367.21,-101.67 310.01,-88.5 251.12,-74.11"/>
<polygon fill="#63b8ff" stroke="#63b8ff" points="251.82,-70.68 241.28,-71.69 250.16,-77.47 251.82,-70.68"/>
</a>
</g>
</g>
<!-- Node6 -->
<g id="Node000006" class="node">
<title>Node6</title>
<g id="a_Node000006"><a xlink:title=" ">
<polygon fill="#e0e0e0" stroke="#999999" points="321.5,-74 259.5,-74 259.5,-55 321.5,-55 321.5,-74"/>
<text text-anchor="middle" x="290.5" y="-62" font-family="Helvetica,sans-Serif" font-size="10.00">expected</text>
</a>
</g>
</g>
<!-- Node1&#45;&gt;Node6 -->
<g id="edge5_Node000001_Node000006" class="edge">
<title>Node1&#45;&gt;Node6</title>
<g id="a_edge5_Node000001_Node000006"><a xlink:title=" ">
<path fill="none" stroke="#63b8ff" d="M417.24,-109.98C392.18,-101.19 352.87,-87.39 324.67,-77.49"/>
<polygon fill="#63b8ff" stroke="#63b8ff" points="325.8,-74.18 315.2,-74.17 323.48,-80.78 325.8,-74.18"/>
</a>
</g>
</g>
<!-- Node7 -->
<g id="Node000007" class="node">
<title>Node7</title>
<g id="a_Node000007"><a xlink:title=" ">
<polygon fill="#e0e0e0" stroke="#999999" points="395.5,-74 339.5,-74 339.5,-55 395.5,-55 395.5,-74"/>
<text text-anchor="middle" x="367.5" y="-62" font-family="Helvetica,sans-Serif" font-size="10.00">mdspan</text>
</a>
</g>
</g>
<!-- Node1&#45;&gt;Node7 -->
<g id="edge6_Node000001_Node000007" class="edge">
<title>Node1&#45;&gt;Node7</title>
<g id="a_edge6_Node000001_Node000007"><a xlink:title=" ">
<path fill="none" stroke="#63b8ff" d="M429.61,-109.98C418.35,-101.92 401.21,-89.65 387.79,-80.03"/>
<polygon fill="#63b8ff" stroke="#63b8ff" points="389.77,-77.15 379.61,-74.17 385.7,-82.84 389.77,-77.15"/>
</a>
</g>
</g>
<!-- Node8 -->
<g id="Node000008" class="node">
<title>Node8</title>
<g id="a_Node000008"><a xlink:title=" ">
<polygon fill="#e0e0e0" stroke="#999999" points="469.5,-74 413.5,-74 413.5,-55 469.5,-55 469.5,-74"/>
<text text-anchor="middle" x="441.5" y="-62" font-family="Helvetica,sans-Serif" font-size="10.00">optional</text>
</a>
</g>
</g>
<!-- Node1&#45;&gt;Node8 -->
<g id="edge7_Node000001_Node000008" class="edge">
<title>Node1&#45;&gt;Node8</title>
<g id="a_edge7_Node000001_Node000008"><a xlink:title=" ">
<path fill="none" stroke="#63b8ff" d="M441.5,-109.75C441.5,-102.8 441.5,-92.85 441.5,-84.13"/>
<polygon fill="#63b8ff" stroke="#63b8ff" points="445,-84.09 441.5,-74.09 438,-84.09 445,-84.09"/>
</a>
</g>
</g>
<!-- Node9 -->
<g id="Node000009" class="node">
<title>Node9</title>
<g id="a_Node000009"><a xlink:title=" ">
<polygon fill="#e0e0e0" stroke="#999999" points="541.5,-74 487.5,-74 487.5,-55 541.5,-55 541.5,-74"/>
<text text-anchor="middle" x="514.5" y="-62" font-family="Helvetica,sans-Serif" font-size="10.00">random</text>
</a>
</g>
</g>
<!-- Node1&#45;&gt;Node9 -->
<g id="edge8_Node000001_Node000009" class="edge">
<title>Node1&#45;&gt;Node9</title>
<g id="a_edge8_Node000001_Node000009"><a xlink:title=" ">
<path fill="none" stroke="#63b8ff" d="M453.23,-109.98C464.23,-102 480.92,-89.88 494.1,-80.31"/>
<polygon fill="#63b8ff" stroke="#63b8ff" points="496.52,-82.88 502.56,-74.17 492.41,-77.21 496.52,-82.88"/>
</a>
</g>
</g>
<!-- Node10 -->
<g id="Node000010" class="node">
<title>Node10</title>
<g id="a_Node000010"><a xlink:title=" ">
<polygon fill="#e0e0e0" stroke="#999999" points="609.5,-74 559.5,-74 559.5,-55 609.5,-55 609.5,-74"/>
<text text-anchor="middle" x="584.5" y="-62" font-family="Helvetica,sans-Serif" font-size="10.00">ranges</text>
</a>
</g>
</g>
<!-- Node1&#45;&gt;Node10 -->
<g id="edge9_Node000001_Node000010" class="edge">
<title>Node1&#45;&gt;Node10</title>
<g id="a_edge9_Node000001_Node000010"><a xlink:title=" ">
<path fill="none" stroke="#63b8ff" d="M464.48,-109.98C488,-101.27 524.79,-87.63 551.44,-77.75"/>
<polygon fill="#63b8ff" stroke="#63b8ff" points="552.95,-80.93 561.11,-74.17 550.51,-74.36 552.95,-80.93"/>
</a>
</g>
</g>
<!-- Node11 -->
<g id="Node000011" class="node">
<title>Node11</title>
<g id="a_Node000011"><a xlink:title=" ">
<polygon fill="#e0e0e0" stroke="#999999" points="667.5,-74 627.5,-74 627.5,-55 667.5,-55 667.5,-74"/>
<text text-anchor="middle" x="647.5" y="-62" font-family="Helvetica,sans-Serif" font-size="10.00">span</text>
</a>
</g>
</g>
<!-- Node1&#45;&gt;Node11 -->
<g id="edge10_Node000001_Node000011" class="edge">
<title>Node1&#45;&gt;Node11</title>
<g id="a_edge10_Node000001_Node000011"><a xlink:title=" ">
<path fill="none" stroke="#63b8ff" d="M477.2,-109.95C511,-101.77 563.38,-88.84 617.49,-74.2"/>
<polygon fill="#63b8ff" stroke="#63b8ff" points="618.52,-77.55 627.25,-71.55 616.68,-70.79 618.52,-77.55"/>
</a>
</g>
</g>
<!-- Node12 -->
<g id="Node000012" class="node">
<title>Node12</title>
<g id="a_Node000012"><a xlink:title=" ">
<polygon fill="#e0e0e0" stroke="#999999" points="729.5,-74 685.5,-74 685.5,-55 729.5,-55 729.5,-74"/>
<text text-anchor="middle" x="707.5" y="-62" font-family="Helvetica,sans-Serif" font-size="10.00">string</text>
</a>
</g>
</g>
<!-- Node1&#45;&gt;Node12 -->
<g id="edge11_Node000001_Node000012" class="edge">
<title>Node1&#45;&gt;Node12</title>
<g id="a_edge11_Node000001_Node000012"><a xlink:title=" ">
<path fill="none" stroke="#63b8ff" d="M493.09,-109.96C538.63,-102.15 607.01,-89.74 675.15,-74.16"/>
<polygon fill="#63b8ff" stroke="#63b8ff" points="676.25,-77.5 685.2,-71.84 674.67,-70.68 676.25,-77.5"/>
</a>
</g>
</g>
<!-- Node13 -->
<g id="Node000013" class="node">
<title>Node13</title>
<g id="a_Node000013"><a xlink:title=" ">
<polygon fill="#e0e0e0" stroke="#999999" points="795,-74 748,-74 748,-55 795,-55 795,-74"/>
<text text-anchor="middle" x="771.5" y="-62" font-family="Helvetica,sans-Serif" font-size="10.00">vector</text>
</a>
</g>
</g>
<!-- Node1&#45;&gt;Node13 -->
<g id="edge12_Node000001_Node000013" class="edge">
<title>Node1&#45;&gt;Node13</title>
<g id="a_edge12_Node000001_Node000013"><a xlink:title=" ">
<path fill="none" stroke="#63b8ff" d="M504.12,-111.03C562.21,-103.67 651.25,-91.28 737.78,-73.95"/>
<polygon fill="#63b8ff" stroke="#63b8ff" points="738.67,-77.34 747.77,-71.92 737.28,-70.48 738.67,-77.34"/>
</a>
</g>
</g>
<!-- Node3 -->
<g id="Node000003" class="node">
<title>Node3</title>
<g id="a_Node000003"><a xlink:title=" ">
<polygon fill="#e0e0e0" stroke="#999999" points="76.5,-19 16.5,-19 16.5,0 76.5,0 76.5,-19"/>
<text text-anchor="middle" x="46.5" y="-7" font-family="Helvetica,sans-Serif" font-size="10.00">concepts</text>
</a>
</g>
</g>
<!-- Node2&#45;&gt;Node3 -->
<g id="edge2_Node000002_Node000003" class="edge">
<title>Node2&#45;&gt;Node3</title>
<g id="a_edge2_Node000002_Node000003"><a xlink:title=" ">
<path fill="none" stroke="#63b8ff" d="M46.5,-54.75C46.5,-47.8 46.5,-37.85 46.5,-29.13"/>
<polygon fill="#63b8ff" stroke="#63b8ff" points="50,-29.09 46.5,-19.09 43,-29.09 50,-29.09"/>
</a>
</g>
</g>
</g>
</svg>
